<svg width="24" height="24" viewBox="0 0 24 24" fill="none" xmlns="http://www.w3.org/2000/svg">
<path d="M4 12.9044C4 11.7821 4.47153 10.7114 5.29949 9.95364L10.4871 5.20603C11.2377 4.51909 12.3844 4.50519 13.1515 5.17374L18.6282 9.94725C19.4998 10.7069 20 11.8065 20 12.9626V19C20 19.5523 19.5523 20 19 20H5C4.44772 20 4 19.5523 4 19V12.9044Z" fill="var(--fill-color)"></path>
<path d="M3.25 12.9041C3.2501 11.5714 3.80986 10.2999 4.79297 9.40018L9.98047 4.65311C11.0126 3.70857 12.5899 3.68894 13.6445 4.60819L19.1211 9.38163C20.1561 10.2837 20.75 11.5898 20.75 12.9627V18.9998C20.75 19.9663 19.9665 20.7498 19 20.7498H5C4.0335 20.7498 3.25 19.9663 3.25 18.9998V12.9041ZM4.75 18.9998C4.75 19.1379 4.86193 19.2498 5 19.2498H11.248V11.9998C11.2482 11.5857 11.5839 11.2498 11.998 11.2498C12.4122 11.2498 12.7479 11.5857 12.748 11.9998V19.2498H19C19.1381 19.2498 19.25 19.1379 19.25 18.9998V12.9627C19.25 12.0234 18.8438 11.1297 18.1357 10.5125L12.6582 5.73905C12.1788 5.32148 11.4622 5.33031 10.9932 5.75956L5.80566 10.5066C5.13303 11.1222 4.7501 11.9923 4.75 12.9041V18.9998Z" fill="white"></path>
</svg>